<svg width="180" height="121" viewBox="0 0 180 121" fill="none" xmlns="http://www.w3.org/2000/svg">
<g clip-path="url(#clip0_51_160)">
<g clip-path="url(#clip1_51_160)">
<path d="M38.011 66.4167C35.3892 68.4583 32.2264 69.5 28.5226 69.5C25.5679 69.5 22.9045 68.8333 20.5324 67.5208C18.1603 66.2083 16.3293 64.375 14.9976 62.0417C13.6659 59.7083 13 57.0833 13 54.1458C13 51.2083 13.6659 48.5833 14.9976 46.25C16.3293 43.9167 18.1811 42.0833 20.5324 40.7708C22.9045 39.4583 25.5679 38.7917 28.5226 38.7917C31.0196 38.7917 33.3084 39.2917 35.3684 40.2708C37.4284 41.25 39.1346 42.6042 40.4663 44.2917C41.798 46 42.6304 47.875 42.9633 49.9375H33.9743C33.5998 48.8958 32.9547 48.0833 31.9976 47.4583C31.0404 46.8333 29.896 46.5417 28.5226 46.5417C26.4627 46.5417 24.798 47.25 23.5496 48.6667C22.3011 50.0833 21.6769 51.9167 21.6769 54.1458C21.6769 56.375 22.3011 58.2083 23.5496 59.625C24.798 61.0417 26.4627 61.75 28.5226 61.75C29.896 61.75 31.0612 61.4375 32.0392 60.7917C33.0171 60.1667 33.7038 59.3125 34.1199 58.25H43.1089C42.339 61.6458 40.6536 64.375 38.011 66.4167Z" fill="#5953FF"/>
<path d="M57.0918 69.5H48.2069V27.5H57.0918V69.5Z" fill="#5953FF"/>
<path d="M122.304 40.7708C124.676 42.0833 126.507 43.9167 127.838 46.25C129.17 48.5833 129.836 51.2083 129.836 54.1458C129.836 57.0833 129.17 59.7083 127.838 62.0417C126.507 64.375 124.655 66.2083 122.304 67.5208C119.931 68.8333 117.268 69.5 114.313 69.5C111.359 69.5 108.695 68.8333 106.323 67.5208C103.951 66.2083 102.12 64.375 100.788 62.0417C99.4565 59.7083 98.7907 57.0833 98.7907 54.1458C98.7907 51.2083 99.4565 48.5833 100.788 46.25C102.12 43.9167 103.972 42.0833 106.323 40.7708C108.695 39.4583 111.359 38.7917 114.313 38.7917C117.268 38.7917 119.931 39.4583 122.304 40.7708ZM109.299 48.5625C108.009 50.0208 107.384 51.875 107.384 54.1458C107.384 56.4167 108.029 58.2708 109.299 59.7292C110.589 61.1875 112.253 61.8958 114.313 61.8958C116.373 61.8958 118.059 61.1667 119.328 59.7292C120.618 58.2708 121.242 56.4167 121.242 54.1458C121.242 51.875 120.597 50.0208 119.328 48.5625C118.038 47.1042 116.373 46.3958 114.313 46.3958C112.253 46.3958 110.568 47.125 109.299 48.5625Z" fill="#5953FF"/>
<path d="M134.955 69.5V54.1458C134.955 51.2083 135.621 48.5833 136.952 46.25C138.284 43.9167 140.136 42.0833 142.487 40.7708C144.859 39.4583 147.523 38.7917 150.477 38.7917C153.432 38.7917 156.095 39.4583 158.468 40.7708C160.84 42.0833 162.671 43.9167 164.002 46.25C165.334 48.5833 166 51.2083 166 54.1458V69.5H157.406V54.1458C157.406 51.875 156.761 50.0208 155.492 48.5625C154.202 47.1042 152.537 46.3958 150.477 46.3958C148.417 46.3958 146.732 47.125 145.463 48.5625C144.173 50.0208 143.548 51.875 143.548 54.1458V69.5H134.955V69.5Z" fill="#5953FF"/>
<path d="M62.2938 54.2083C70.3672 62.2917 61.2118 69.4167 70.9914 69.4167C77.1297 69.4167 81.6867 67.3958 85.0783 64.3125V65.125C85.0783 67.5417 87.0343 69.5 89.448 69.5C91.8617 69.5 93.8176 67.5417 93.8176 65.125V43.1667C93.8176 22.7606 55.6863 47.5928 62.2938 54.2083ZM78.0453 62.0417C74.1542 62.0417 71.0122 58.5417 71.0122 54.2292C71.0122 49.9167 74.175 46.4167 78.0453 46.4167C81.9155 46.4167 85.0783 49.9167 85.0783 54.2292C85.0783 58.5417 81.9155 62.0417 78.0453 62.0417Z" fill="#5953FF"/>
</g>
<path fill-rule="evenodd" clip-rule="evenodd" d="M108.818 76.8181C110.575 75.0607 113.425 75.0607 115.182 76.8181C125.14 86.7764 141.286 86.7764 151.244 76.8181C153.002 75.0607 155.851 75.0607 157.608 76.8181C159.366 78.5754 159.366 81.4247 157.608 83.182C144.135 96.6551 122.291 96.6551 108.818 83.182C107.061 81.4247 107.061 78.5754 108.818 76.8181Z" fill="#FFDE3B"/>
</g>
<defs>
<clipPath id="clip0_51_160">
<rect width="180" height="120" fill="white" transform="translate(0 0.5)"/>
</clipPath>
<clipPath id="clip1_51_160">
<rect width="153" height="42" fill="white" transform="translate(13 27.5)"/>
</clipPath>
</defs>
</svg>
