<svg width="56" height="57" viewBox="0 0 56 57" fill="none" xmlns="http://www.w3.org/2000/svg">
<circle cx="28" cy="28.5" r="27.5" fill="white" stroke="#E6E6E6"/>
<path fill-rule="evenodd" clip-rule="evenodd" d="M38 28.936C38 28.2124 37.9351 27.5167 37.8145 26.8488H28.2041V30.7959H33.6957C33.4592 32.0714 32.7403 33.1521 31.6596 33.8757V36.436H34.9573C36.8868 34.6595 38 32.0436 38 28.936Z" fill="#4285F4"/>
<path fill-rule="evenodd" clip-rule="evenodd" d="M28.2041 38.9082C30.9592 38.9082 33.269 37.9944 34.9573 36.436L31.6596 33.8757C30.7458 34.4879 29.577 34.8497 28.2041 34.8497C25.5464 34.8497 23.2969 33.0547 22.4944 30.6428H19.0854V33.2866C20.7644 36.6215 24.2152 38.9082 28.2041 38.9082Z" fill="#34A853"/>
<path fill-rule="evenodd" clip-rule="evenodd" d="M22.4944 30.6429C22.2904 30.0307 22.1744 29.3767 22.1744 28.7041C22.1744 28.0316 22.2904 27.3776 22.4944 26.7654V24.1216H19.0853C18.3942 25.4991 18 27.0576 18 28.7041C18 30.3507 18.3942 31.9091 19.0853 33.2867L22.4944 30.6429Z" fill="#FBBC05"/>
<path fill-rule="evenodd" clip-rule="evenodd" d="M28.2041 22.5584C29.7022 22.5584 31.0473 23.0733 32.1048 24.0844L35.0316 21.1577C33.2644 19.5111 30.9546 18.5 28.2041 18.5C24.2152 18.5 20.7644 20.7866 19.0854 24.1215L22.4944 26.7653C23.2969 24.3534 25.5464 22.5584 28.2041 22.5584Z" fill="#EA4335"/>
</svg>
